<svg id="run" enable-background="new 0 0 300 300" height="512" viewBox="0 0 300 300" width="512" xmlns="http://www.w3.org/2000/svg"><g><circle cx="163.397" cy="172.156" fill="#edebdc" r="92"/><g><path d="m171.397 92.156 13.869-17.485 14.131 9.485-12 20z" fill="#e7d1c4"/><path d="m187.397 108.156c-.859 0-1.701-.277-2.4-.801l-16-12c-.863-.646-1.428-1.617-1.566-2.688s.162-2.152.832-2.998l13.871-17.484c1.293-1.635 3.627-2.004 5.361-.834l14.131 9.484c1.77 1.186 2.297 3.551 1.201 5.379l-12 20c-.582.971-1.549 1.648-2.66 1.867-.256.049-.514.075-.77.075zm-10.313-16.735 9.164 6.873 7.762-12.936-7.906-5.307z" fill="#4c241d"/></g><g fill="#4c241d"><path d="m233.397 252.156c-7.719 0-14-6.281-14-14s6.281-14 14-14 14 6.281 14 14-6.281 14-14 14zm0-20c-3.309 0-6 2.691-6 6s2.691 6 6 6 6-2.691 6-6-2.691-6-6-6z"/><circle cx="232.225" cy="197.609" r="4.276"/><path d="m251.397 124.158c-.479 0-.963-.086-1.436-.268l-208-80c-2.062-.795-3.092-3.109-2.299-5.17.797-2.062 3.115-3.09 5.17-2.299l208 80c2.062.795 3.092 3.109 2.299 5.17-.613 1.59-2.129 2.567-3.734 2.567z"/></g><g><path d="m214.21 136.044s-14.294-25.271-21.528-31.059l-6.757-5.406c-9.267-7.414-20.733-11.544-32.6-11.74l-35.3-.513-21.437 33.559c-1.989 3.114-.486 7.267 3.034 8.387 2.157.686 4.515.013 5.984-1.709l22.68-26.584 30.507 6.418-37.043 59.053 43.811 5.476-.351-.351 25.672-38.507s9.29 19.274 10.517 20.905c4.43 5.89 13.143 6.355 18.542 1.338l38.263-31.56c2.914-2.709 2.556-7.423-.735-9.66-2.146-1.458-4.973-1.424-7.084.085z" fill="#fc8c29"/><path d="m165.563 175.925c-.166 0-.332-.01-.498-.031l-43.811-5.477c-1.355-.17-2.531-1.02-3.117-2.254s-.502-2.684.225-3.84l33.994-54.193-22.568-4.748-21.139 24.775c-2.52 2.957-6.541 4.107-10.242 2.924-2.869-.912-5.104-3.061-6.129-5.896-1.025-2.834-.684-5.916.939-8.455l21.438-33.559c.746-1.168 1.943-1.871 3.43-1.846l35.299.514c12.689.209 25.131 4.689 35.039 12.617l6.758 5.406c6.154 4.922 16.074 21.18 20.453 28.646l32.682-19.758c3.199-2.303 7.887-2.357 11.402.031 2.582 1.754 4.197 4.545 4.434 7.654.238 3.113-.938 6.117-3.225 8.242l-38.439 31.717c-3.322 3.096-8.064 4.701-12.818 4.299-4.639-.412-8.711-2.656-11.467-6.318-.951-1.264-4.605-8.592-7.867-15.273l-20.789 31.184c-.043.477-.172.949-.391 1.396-.679 1.384-2.081 2.243-3.593 2.243zm-37.09-12.668 34.594 4.324 24.488-36.732c.795-1.193 2.154-1.855 3.605-1.771 1.434.1 2.703.959 3.326 2.254 4.326 8.975 9.309 19.025 10.16 20.309 1.324 1.756 3.377 2.877 5.729 3.086 2.516.211 5.002-.635 6.844-2.346l38.439-31.717c.496-.471.547-1.225.516-1.617-.029-.395-.193-1.131-.953-1.646-.756-.512-1.764-.502-2.508.027l-36.434 22.041c-.926.561-2.037.719-3.084.445-1.045-.273-1.936-.959-2.469-1.9-3.871-6.842-15.107-25.555-20.543-29.904l-6.758-5.406c-8.533-6.826-19.246-10.684-30.168-10.863l-33.062-.482-20.236 31.682c-.375.586-.262 1.145-.16 1.426s.371.783 1.035.994c.619.203 1.303.01 1.729-.492l22.68-26.584c.951-1.111 2.43-1.619 3.867-1.318l30.508 6.418c1.279.27 2.346 1.146 2.857 2.35.512 1.205.402 2.582-.293 3.689z" fill="#4c241d"/></g><g><path d="m107.45 189.246-42.834 3.153c-5.587.411-10.989 2.185-15.731 5.167l-8.988 5.651 72.851 4.787c4.808.316 9.532-1.376 13.046-4.674l20.163-18.92 33.939 26.807-16.486 32.972c-2.253 4.506-2.656 9.714-1.122 14.513l2.922 9.141 31.979-47.969c3.796-5.694 3.045-13.275-1.793-18.114l-29.835-29.835-43.811-5.476z" fill="#bd53b5"/><path d="m165.211 271.843c-.184 0-.369-.012-.555-.039-1.523-.213-2.787-1.279-3.256-2.742l-2.922-9.141c-1.861-5.828-1.381-12.049 1.354-17.521l15.031-30.061-28.682-22.654-17.65 16.562c-4.305 4.037-10.129 6.109-16.045 5.75l-72.852-4.787c-1.73-.115-3.191-1.33-3.615-3.012-.426-1.68.279-3.443 1.748-4.367l8.988-5.652c5.279-3.318 11.354-5.312 17.566-5.77l40.814-3.004 13.225-21.082c.826-1.316 2.326-2.045 3.885-1.844l43.811 5.477c.883.109 1.703.512 2.332 1.141l29.836 29.836c6.166 6.166 7.131 15.906 2.293 23.16l-31.979 47.969c-.747 1.123-2 1.781-3.327 1.781zm-19.253-91.433c.875 0 1.75.285 2.479.861l33.939 26.809c1.488 1.174 1.947 3.232 1.1 4.928l-16.486 32.971c-1.797 3.594-2.111 7.68-.889 11.508l.393 1.227 27.369-41.057c2.729-4.092 2.186-9.588-1.293-13.066l-28.865-28.865-39.92-4.99-12.945 20.637c-.676 1.078-1.826 1.771-3.096 1.863l-42.834 3.154c-4.316.318-8.549 1.574-12.346 3.654l60.447 3.971c3.707.25 7.352-1.07 10.049-3.6l20.16-18.92c.767-.722 1.751-1.085 2.738-1.085zm-38.508 8.836h.039z" fill="#4c241d"/></g><g><path d="m86.976 88.577c0-13.022-10.557-40.421-23.579-40.421s-23.579 27.399-23.579 40.421 10.557 23.579 23.579 23.579 23.579-10.557 23.579-23.579z" fill="#bf7e68"/><path d="m63.397 116.156c-15.207 0-27.578-12.371-27.578-27.578 0-13.186 10.703-44.422 27.578-44.422s27.578 31.236 27.578 44.422c0 15.207-12.371 27.578-27.578 27.578zm0-64c-9.207 0-19.578 23.76-19.578 36.422 0 10.795 8.783 19.578 19.578 19.578s19.578-8.783 19.578-19.578c0-12.662-10.371-36.422-19.578-36.422z" fill="#4c241d"/></g><path d="m65.297 52.367c-1.35 0-2.666-.684-3.418-1.916l-9.896-16.211c-1.15-1.885-.557-4.348 1.33-5.498 1.885-1.148 4.346-.555 5.498 1.33l7.855 12.867 10.719-6.24c1.906-1.113 4.355-.465 5.469 1.445 1.111 1.908.465 4.357-1.445 5.469l-14.104 8.211c-.631.367-1.324.543-2.008.543z" fill="#4c241d"/><g><path d="m164.161 172.895-18.203 11.516" fill="#bd53b5"/><path d="m145.961 188.41c-1.326 0-2.623-.658-3.385-1.861-1.18-1.867-.625-4.338 1.242-5.52l18.203-11.514c1.867-1.188 4.338-.623 5.52 1.242 1.18 1.867.625 4.338-1.242 5.52l-18.203 11.514c-.664.42-1.404.619-2.135.619z" fill="#4c241d"/></g><path d="m190.887 137.068c-1.225 0-2.432-.559-3.217-1.617l-6.383-8.604c-1.316-1.773-.945-4.279.83-5.596 1.781-1.314 4.281-.943 5.596.83l6.383 8.604c1.316 1.773.945 4.279-.83 5.596-.715.531-1.551.787-2.379.787z" fill="#4c241d"/><g><path d="m215.397 84.156h-18.731c-9.537 0-17.269-7.732-17.269-17.269v-10.731c0-8.837 7.163-16 16-16h4c8.837 0 16 7.163 16 16z" fill="#e7d1c4"/><path d="m215.397 88.156h-18.73c-11.729 0-21.27-9.541-21.27-21.27v-10.73c0-11.027 8.973-20 20-20h4c11.027 0 20 8.973 20 20v28c0 2.209-1.791 4-4 4zm-20-44c-6.617 0-12 5.383-12 12v10.73c0 7.316 5.953 13.27 13.27 13.27h14.73v-24c0-6.617-5.383-12-12-12z" fill="#4c241d"/></g></g></svg>